# xmcd
#
# Track frame offsets:
#	150
#	16729
#	33478
#	43257
#	51587
#	60940
#	68725
#	76324
#	86932
#	95013
#	105516
#	115916
#
# Disc length: 1672 seconds
#
# Revision: 0
# Processed by: cddbd v1.5.2PL0 Copyright (c) Steve Scherf et al.
# Submitted via: dBpowerAMP V4.0
#
DISCID=9b06860c
DTITLE=Charlie Sizemore Band - Singing With the Angels
DYEAR=1998
DGENRE=Bluegrass
TTITLE0=The Church By the Road
TTITLE1=I Pressed Through the Crowd
TTITLE2=Time For Me To Go Home
TTITLE3=Singing With the Angels
TTITLE4=Camping In Canaan's Land
TTITLE5=When the Redeemed Are Gathering In
TTITLE6=Seek Jesus, He Still May Be Found
TTITLE7=Leaning On the Everlasting Arms
TTITLE8=We Shall Rise
TTITLE9=It'll Matter But Little
TTITLE10=Old Country Church
TTITLE11=The Prettiest Flowers
EXTD=Old Homestead Records\n\nSubmitted by Rich Price
EXTT0=
EXTT1=
EXTT2=
EXTT3=
EXTT4=
EXTT5=
EXTT6=
EXTT7=
EXTT8=
EXTT9=
EXTT10=
EXTT11=
PLAYORDER=
